<svg xmlns="http://www.w3.org/2000/svg" id="Layer_1" viewBox="120 0 110 310"><defs><style>.cls-1{fill:#50DA4C;stroke-width:0px;}</style></defs><polygon class="cls-1" points="0 .64 0 300.64 68.04 300.58 34.18 267.27 34.18 35.3 266.15 35.3 300 68.6 300 .64 0 .64"/><polygon class="cls-1" points="233.12 200.23 233.12 100.98 200.04 100.98 200.04 134.07 166.96 134.07 166.96 167.15 200.04 167.15 200.04 233.31 233.12 233.31 233.12 233.31 266.2 233.31 266.2 200.23 233.12 200.23"/><polygon class="cls-1" points="134.54 200.17 134.54 67.84 101.45 67.84 101.45 100.17 67.82 100.17 67.82 133.25 101.45 133.25 101.45 200.17 67.82 200.17 67.82 233.26 167.07 233.26 167.07 200.17 134.54 200.17"/></svg>