<?xml version="1.0" encoding="UTF-8"?>
<svg xmlns="http://www.w3.org/2000/svg" xmlns:xlink="http://www.w3.org/1999/xlink" viewBox="0 0 250 250" version="1.1">
<g id="surface3">
<path style=" stroke:none;fill-rule:nonzero;fill:#fff;fill-opacity:1;" d="M 123.789062 252.007812 C 123.078125 251.804688 122.398438 251.492188 121.78125 251.082031 C 120.195312 250 117.722656 247.207031 116.179688 244.832031 C 114.054688 241.558594 106.582031 231.640625 100.632812 224.210938 C 88.449219 208.941406 77.636719 196.710938 65.15625 184.097656 C 50.140625 168.902344 38.351562 158.542969 25.019531 148.78125 C 20.984375 145.828125 13.09375 140.566406 10.949219 139.417969 C 5.394531 136.441406 1.167969 132.382812 0.234375 129.265625 C -0.164062 127.957031 -0.109375 124.980469 0.300781 123.542969 C 1.105469 120.773438 4.683594 117.570312 10.128906 114.753906 C 17.253906 111.0625 25.304688 105.160156 35.921875 95.816406 C 54.246094 79.792969 82.0625 51.070312 103.746094 25.839844 C 110.320312 18.207031 113.757812 13.800781 115.652344 10.546875 C 118.578125 5.609375 121.207031 2.820312 123.5625 1.96875 C 125.414062 1.53125 127.339844 1.53125 129.191406 1.96875 C 129.925781 2.207031 130.625 2.550781 131.265625 2.984375 C 132.851562 4.066406 135.695312 7.25 137.355469 9.789062 L 139.433594 12.972656 C 140.171875 14.054688 149.601562 25.867188 153.320312 30.339844 C 178.570312 60.601562 203.570312 86.183594 224.175781 102.628906 C 233.238281 109.847656 242.765625 116.355469 248.277344 119.027344 C 250.660156 120.203125 252.894531 122.121094 253.515625 123.589844 C 254.140625 125.019531 254.109375 127.8125 253.46875 129.542969 C 252.871094 131.132812 250.632812 133.464844 248.53125 134.710938 C 243.480469 137.664062 226.59375 150.535156 216.007812 159.511719 C 190.214844 181.335938 167.476562 204.582031 148.078125 228.941406 C 143.742188 234.410156 136.386719 244.277344 135.367188 245.988281 C 134.140625 247.902344 132.613281 249.605469 130.84375 251.039062 C 129.046875 252.285156 126.210938 252.679688 123.78125 252.007812 Z M 130.734375 220.15625 C 139.640625 216.648438 163.027344 197.109375 185.8125 174.113281 C 199.515625 160.296875 209.203125 148.972656 214.648438 140.464844 C 216.558594 137.449219 218.753906 132.992188 219.261719 131.03125 C 219.886719 128.769531 219.769531 126.046875 219.007812 123.652344 C 215.734375 113.453125 203.207031 97.054688 183.371094 76.964844 C 161.546875 54.890625 140.699219 38.371094 130.183594 34.867188 C 126.214844 33.558594 124.300781 33.695312 120.261719 35.632812 C 101.785156 44.5 51.800781 93.148438 36.90625 116.722656 C 35.058594 119.675781 33.332031 123.183594 32.707031 125.234375 C 31.515625 129.015625 32.796875 132.984375 37.269531 139.917969 C 51.457031 161.851562 99.59375 207.296875 120.21875 218.273438 C 125.039062 220.832031 127.785156 221.339844 130.695312 220.1875 Z M 126.972656 215.394531 C 123.652344 214.703125 114.5625 208.75 104.949219 201.042969 C 75.632812 177.539062 42.597656 142.589844 38.148438 130.410156 C 37.292969 128.027344 37.410156 127.035156 39.046875 123.789062 C 44.859375 112.144531 66.519531 87.621094 91.03125 65.058594 C 103.71875 53.363281 116.242188 43.539062 122.5 40.449219 C 125.246094 39.058594 126.46875 39.019531 129.324219 40.132812 C 146.488281 46.941406 191.90625 89.71875 208.304688 114.496094 C 213.128906 121.785156 214.925781 126.242188 214.257812 129.167969 C 212.671875 136.230469 201.226562 150.898438 182.054688 170.246094 C 160.144531 192.390625 136.015625 212.707031 128.355469 215.457031 C 128.078125 215.546875 127.433594 215.546875 126.929688 215.433594 Z M 134.378906 187.828125 C 134.308594 187.089844 133.960938 178.257812 133.613281 168.226562 L 132.992188 149.972656 L 126.347656 149.972656 C 122.683594 149.972656 119.707031 150.039062 119.707031 150.160156 C 119.253906 156.480469 118.792969 162.800781 118.320312 169.117188 L 116.933594 188.5625 L 116.933594 189.1875 L 134.511719 189.1875 Z M 136.894531 146.933594 C 144.988281 146.355469 151.746094 145.019531 157.304688 142.898438 C 161.21875 141.300781 164.996094 139.394531 168.605469 137.199219 C 171.535156 135.285156 173.84375 132.953125 174.855469 130.902344 C 175.453125 129.890625 175.726562 128.726562 175.644531 127.554688 C 175.644531 123.816406 173.683594 121.464844 167.015625 117.316406 C 166.460938 116.972656 166.113281 116.601562 166.210938 116.511719 C 166.328125 116.394531 167.269531 116.113281 168.3125 115.796875 C 169.355469 115.480469 170.207031 115.222656 170.160156 115.203125 C 161.929688 112.789062 153.671875 110.484375 145.386719 108.28125 C 145.316406 108.347656 145.980469 110.519531 146.835938 113.121094 L 148.425781 117.871094 L 149.925781 117.847656 C 150.71875 117.847656 152.671875 117.757812 154.191406 117.664062 L 156.960938 117.476562 L 158.527344 118.269531 C 160.652344 119.402344 163.742188 121.730469 164.867188 123.03125 C 167.613281 126.324219 167.660156 128.984375 165.007812 131.863281 C 161.824219 135.253906 157.003906 137.261719 147.316406 139.246094 C 139.433594 140.914062 131.386719 141.664062 123.328125 141.484375 C 114.75 141.296875 108.382812 140.175781 102.269531 137.746094 C 94.609375 134.730469 90.828125 131.515625 90.761719 128.0625 C 90.714844 124.167969 96.460938 119.78125 106.308594 116.207031 L 109.351562 115.074219 L 106.953125 113.6875 L 100.054688 109.628906 L 95.558594 106.996094 L 92.582031 108.035156 C 83.910156 111.050781 77.335938 114.65625 73.507812 118.460938 C 70.96875 121.019531 70.214844 122.453125 70.117188 125.054688 C 70.027344 127.269531 70.398438 128.429688 71.898438 130.476562 C 74.6875 134.304688 81.632812 138.273438 92.332031 142.121094 C 98.445312 144.335938 110.117188 146.183594 122.550781 146.886719 C 127.316406 147.058594 132.089844 147.035156 136.851562 146.816406 Z M 132.234375 135.703125 L 131.195312 100.066406 C 131.285156 99.976562 133.867188 99.859375 136.9375 99.835938 L 142.492188 99.769531 L 134.027344 79.769531 L 125.449219 59.652344 C 125.382812 59.582031 122.40625 68.484375 118.804688 79.421875 L 112.164062 99.601562 C 112.070312 99.808594 113.015625 99.882812 116.429688 99.882812 C 118.808594 99.882812 120.882812 99.949219 120.925781 100.066406 C 121.015625 100.207031 120.210938 125.949219 119.839844 134.78125 L 119.703125 138.171875 L 132.339844 138.171875 Z M 132.234375 135.703125 "/>
</g>
</svg>
