<?xml version="1.0" encoding="UTF-8"?>
<svg version="1.1" xmlns="http://www.w3.org/2000/svg" width="503" height="512">
<path d="M0 0 C0 0.66 0 1.32 0 2 C6.27 2 12.54 2 19 2 C19 2.66 19 3.32 19 4 C20.06927734 3.98259766 20.06927734 3.98259766 21.16015625 3.96484375 C29.77479185 3.88368298 37.63413752 5.0460684 46 7 C46 7.66 46 8.32 46 9 C50.29 9.33 54.58 9.66 59 10 C59 10.66 59 11.32 59 12 C60.98 12 62.96 12 65 12 C65 12.66 65 13.32 65 14 C65.74765625 14.04898438 66.4953125 14.09796875 67.265625 14.1484375 C68.25046875 14.22320312 69.2353125 14.29796875 70.25 14.375 C71.22453125 14.44460937 72.1990625 14.51421875 73.203125 14.5859375 C75.95612034 14.99350385 77.58943162 15.6780754 80 17 C81.57403776 17.56811297 83.1578301 18.10988621 84.75 18.625 C85.94882812 19.01558594 85.94882812 19.01558594 87.171875 19.4140625 C87.77515625 19.60742188 88.3784375 19.80078125 89 20 C89 20.66 89 21.32 89 22 C89.61488281 22.04898438 90.22976563 22.09796875 90.86328125 22.1484375 C92.07564453 22.26058594 92.07564453 22.26058594 93.3125 22.375 C94.11300781 22.44460937 94.91351563 22.51421875 95.73828125 22.5859375 C98 23 98 23 101 25 C103.11280345 25.63292383 103.11280345 25.63292383 105 26 C105 26.66 105 27.32 105 28 C106.32 28 107.64 28 109 28 C109 28.66 109 29.32 109 30 C110.093125 30.12375 111.18625 30.2475 112.3125 30.375 C116 31 116 31 119 33 C121.11280345 33.63292383 121.11280345 33.63292383 123 34 C123 34.66 123 35.32 123 36 C124.98 36.33 126.96 36.66 129 37 C129 37.66 129 38.32 129 39 C130.32 39 131.64 39 133 39 C133 39.66 133 40.32 133 41 C133.99 41.33 134.98 41.66 136 42 C136 42.66 136 43.32 136 44 C136.66 44 137.32 44 138 44 C139.04449911 47.13349732 138.93423645 47.98968256 138 51 C133.14270355 51.97299156 128.5499375 52.12038805 123.625 52.0625 C122.88894531 52.05798828 122.15289062 52.05347656 121.39453125 52.04882812 C119.59631842 52.03715142 117.79814803 52.01922011 116 52 C116 51.34 116 50.68 116 50 C115.319375 50.02320313 114.63875 50.04640625 113.9375 50.0703125 C107.91981183 50.18234393 102.08782473 49.86637925 96.125 49.0625 C84.81153202 47.55332657 73.66036988 46.91361688 62.25 46.875 C61.27208496 46.87032715 60.29416992 46.8656543 59.28662109 46.86083984 C58.37219238 46.86293457 57.45776367 46.8650293 56.515625 46.8671875 C55.69352539 46.86831543 54.87142578 46.86944336 54.02441406 46.87060547 C51.9304786 46.87257314 51.9304786 46.87257314 50 48 C48.45976004 48.06950541 46.91665012 48.08452357 45.375 48.0625 C44.14910156 48.04896484 44.14910156 48.04896484 42.8984375 48.03515625 C42.27195312 48.02355469 41.64546875 48.01195312 41 48 C41 48.33 41 48.66 41 49 C39.989375 48.95875 38.97875 48.9175 37.9375 48.875 C33.9369317 49.00200217 30.81742801 49.86891022 27 51 C24.0625 51.125 24.0625 51.125 22 51 C22 51.66 22 52.32 22 53 C19.36 53.33 16.72 53.66 14 54 C14 54.66 14 55.32 14 56 C11.36 56.66 8.72 57.32 6 58 C6 58.66 6 59.32 6 60 C5.01 60.33 4.02 60.66 3 61 C2.67 61.66 2.34 62.32 2 63 C1.236875 63.268125 0.47375 63.53625 -0.3125 63.8125 C-3.59300546 65.26202567 -4.85377053 67.18769932 -7 70 C-7.66 70 -8.32 70 -9 70 C-9.33 71.32 -9.66 72.64 -10 74 C-10.66 74 -11.32 74 -12 74 C-12.33 75.65 -12.66 77.3 -13 79 C-13.66 79 -14.32 79 -15 79 C-15.33 81.31 -15.66 83.62 -16 86 C-16.66 86 -17.32 86 -18 86 C-18 87.32 -18 88.64 -18 90 C-18.66 90 -19.32 90 -20 90 C-19.67 91.65 -19.34 93.3 -19 95 C-19.66 95 -20.32 95 -21 95 C-21 98.3 -21 101.6 -21 105 C-21.33 105 -21.66 105 -22 105 C-22.28807283 123.46325261 -21.57652166 141.60794611 -20 160 C-19.34 160 -18.68 160 -18 160 C-17.67 164.29 -17.34 168.58 -17 173 C-16.34 173 -15.68 173 -15 173 C-15.33 174.98 -15.66 176.96 -16 179 C-15.34 179 -14.68 179 -14 179 C-13.86722656 179.60328125 -13.73445312 180.2065625 -13.59765625 180.828125 C-13.33275391 182.02695312 -13.33275391 182.02695312 -13.0625 183.25 C-12.88847656 184.03890625 -12.71445313 184.8278125 -12.53515625 185.640625 C-12.19019979 187.16145494 -11.80484531 188.67395035 -11.37109375 190.171875 C-11 192 -11 192 -12 194 C-11.34 194 -10.68 194 -10 194 C-9.67 196.97 -9.34 199.94 -9 203 C-8.34 203 -7.68 203 -7 203 C-6.8046875 205.05078125 -6.609375 207.1015625 -6.4140625 209.15234375 C-6.27742187 209.76207031 -6.14078125 210.37179688 -6 211 C-5.34 211.33 -4.68 211.66 -4 212 C-4.33 212.99 -4.66 213.98 -5 215 C-4.34 215 -3.68 215 -3 215 C-2.67 217.64 -2.34 220.28 -2 223 C-1.34 223 -0.68 223 0 223 C0.66 226.3 1.32 229.6 2 233 C2.66 233 3.32 233 4 233 C4.33 235.64 4.66 238.28 5 241 C5.66 241 6.32 241 7 241 C7.33 243.31 7.66 245.62 8 248 C8.66 248 9.32 248 10 248 C11.27798935 252.71258572 12 256.04265048 12 261 C6.72 261 1.44 261 -4 261 C-4 260.67 -4 260.34 -4 260 C-7.3 259.67 -10.6 259.34 -14 259 C-14 258.34 -14 257.68 -14 257 C-14.61746094 257.01160156 -15.23492187 257.02320313 -15.87109375 257.03515625 C-21.67525544 257.09699663 -27.24338088 256.74278956 -33 256 C-33 255.67 -33 255.34 -33 255 C-36.3 254.67 -39.6 254.34 -43 254 C-43 253.34 -43 252.68 -43 252 C-43.6290625 252.02320313 -44.258125 252.04640625 -44.90625 252.0703125 C-49.83358543 252.1742021 -53.99862385 251.89700419 -58.7734375 250.51171875 C-63.42700181 249.44221537 -68.24497394 249.30115165 -73 249 C-73 248.67 -73 248.34 -73 248 C-76.3 247.67 -79.6 247.34 -83 247 C-83 246.67 -83 246.34 -83 246 C-88.94 245.34 -94.88 244.68 -101 244 C-101 243.67 -101 243.34 -101 243 C-104.63 242.67 -108.26 242.34 -112 242 C-112 241.67 -112 241.34 -112 241 C-112.63808594 240.93941406 -113.27617188 240.87882813 -113.93359375 240.81640625 C-114.75988281 240.73261719 -115.58617187 240.64882813 -116.4375 240.5625 C-117.67306641 240.44068359 -117.67306641 240.44068359 -118.93359375 240.31640625 C-121 240 -121 240 -122 239 C-124.52195967 238.60056824 -127.02963656 238.24920152 -129.5625 237.9375 C-130.27341797 237.84662109 -130.98433594 237.75574219 -131.71679688 237.66210938 C-133.47738403 237.43760497 -135.23863478 237.21831603 -137 237 C-137 236.34 -137 235.68 -137 235 C-137.66 235 -138.32 235 -139 235 C-140.35439668 232.29120665 -140.06501451 229.99066732 -140 227 C-140.66 227 -141.32 227 -142 227 C-142.33910994 224.95928485 -142.67102704 222.91737379 -143 220.875 C-143.185625 219.73804688 -143.37125 218.60109375 -143.5625 217.4296875 C-143.96956049 214.23862398 -144.07809902 211.21182209 -144 208 C-144.66 208 -145.32 208 -146 208 C-145.979375 207.030625 -145.95875 206.06125 -145.9375 205.0625 C-145.64381501 202.12534105 -145.64381501 202.12534105 -147 201 C-147.400383 198.14471393 -147.7518227 195.30263513 -148.0625 192.4375 C-148.15337891 191.63119141 -148.24425781 190.82488281 -148.33789062 189.99414062 C-148.56247449 187.99652623 -148.78173236 185.9983144 -149 184 C-149.33 184 -149.66 184 -150 184 C-149.505 176.575 -149.505 176.575 -149 169 C-149.66 169 -150.32 169 -151 169 C-150.99476318 168.26362305 -150.98952637 167.52724609 -150.98413086 166.76855469 C-150.96333133 163.42904515 -150.95033032 160.08954926 -150.9375 156.75 C-150.92912109 155.59113281 -150.92074219 154.43226563 -150.91210938 153.23828125 C-150.90888672 152.12324219 -150.90566406 151.00820312 -150.90234375 149.859375 C-150.89710693 148.83295898 -150.89187012 147.80654297 -150.88647461 146.74902344 C-150.98685329 144.31834819 -151.32381898 142.32234589 -152 140 C-152 139 -152 139 -151 137 C-150.84932786 135.5534758 -150.75138964 134.1012066 -150.68359375 132.6484375 C-150.64169922 131.79765625 -150.59980469 130.946875 -150.55664062 130.0703125 C-150.51732422 129.18085938 -150.47800781 128.29140625 -150.4375 127.375 C-150.39431641 126.4778125 -150.35113281 125.580625 -150.30664062 124.65625 C-150.20043139 122.43765717 -150.09838806 120.2189512 -150 118 C-149.67 118 -149.34 118 -149 118 C-148.67 114.7 -148.34 111.4 -148 108 C-147.34 108 -146.68 108 -146 108 C-145.67 103.38 -145.34 98.76 -145 94 C-144.67 94 -144.34 94 -144 94 C-142.68 89.71 -141.36 85.42 -140 81 C-139.34 81 -138.68 81 -138 81 C-137.87625 79.741875 -137.7525 78.48375 -137.625 77.1875 C-137.30131941 73.89674737 -136.93395001 72.90092502 -135 70 C-134.505 68.515 -134.505 68.515 -134 67 C-133.34 67 -132.68 67 -132 67 C-132 66.01 -132 65.02 -132 64 C-131.34 64 -130.68 64 -130 64 C-129.87625 63.21625 -129.7525 62.4325 -129.625 61.625 C-129 59 -129 59 -127 57 C-126.67 56.01 -126.34 55.02 -126 54 C-125.01 53.505 -125.01 53.505 -124 53 C-123.67 52.01 -123.34 51.02 -123 50 C-122.34 50 -121.68 50 -121 50 C-121 49.34 -121 48.68 -121 48 C-120.01 47.505 -120.01 47.505 -119 47 C-118.54625 46.236875 -118.0925 45.47375 -117.625 44.6875 C-115.99622851 41.99376253 -114.36811253 40.06254962 -112 38 C-111.34 38 -110.68 38 -110 38 C-109.74347656 37.40445313 -109.48695312 36.80890625 -109.22265625 36.1953125 C-107.89030313 33.80303629 -106.56631395 32.57271801 -104.4375 30.875 C-101.78974334 28.79096366 -101.78974334 28.79096366 -100 26 C-97.4375 25.375 -97.4375 25.375 -95 25 C-95 24.34 -95 23.68 -95 23 C-93.54462432 22.16151196 -92.08559627 21.32936066 -90.625 20.5 C-89.81289062 20.0359375 -89.00078125 19.571875 -88.1640625 19.09375 C-86 18 -86 18 -84 18 C-84 17.34 -84 16.68 -84 16 C-81.03 15.505 -81.03 15.505 -78 15 C-78 14.34 -78 13.68 -78 13 C-76.865625 12.87625 -75.73125 12.7525 -74.5625 12.625 C-73.386875 12.41875 -72.21125 12.2125 -71 12 C-70.67 11.34 -70.34 10.68 -70 10 C-69.01 10.495 -69.01 10.495 -68 11 C-68 10.34 -68 9.68 -68 9 C-63.545 8.505 -63.545 8.505 -59 8 C-59 7.34 -59 6.68 -59 6 C-52.6221448 4.82706111 -46.49678438 3.70469162 -40 4 C-40 3.34 -40 2.68 -40 2 C-34.83535321 1.00228414 -29.74127109 0.68004077 -24.5 0.4375 C-23.62375977 0.3950415 -22.74751953 0.35258301 -21.84472656 0.30883789 C-14.55801231 -0.02195285 -7.29433545 -0.10869043 0 0 Z M49.9375 82.9375 C50.90751953 82.94201172 51.87753906 82.94652344 52.87695312 82.95117188 C55.2513676 82.9628685 57.62565021 82.97925914 60 83 C60 83.33 60 83.66 60 84 C62.64 84.33 65.28 84.66 68 85 C68 85.33 68 85.66 68 86 C68.67546875 86.10957031 69.3509375 86.21914062 70.046875 86.33203125 C70.93890625 86.49058594 71.8309375 86.64914063 72.75 86.8125 C73.63171875 86.96332031 74.5134375 87.11414063 75.421875 87.26953125 C78.21852753 88.06191613 79.7511354 89.20090832 82 91 C83.98014432 91.72351427 85.97821315 92.40265389 88 93 C88 93.66 88 94.32 88 95 C89.65 95.33 91.3 95.66 93 96 C93 96.66 93 97.32 93 98 C94.65 98.33 96.3 98.66 98 99 C98 99.66 98 100.32 98 101 C99.0828125 101.0928125 99.0828125 101.0928125 100.1875 101.1875 C103.88399074 102.2553751 105.53138868 104.10819816 108 107 C108 107.66 108 108.32 108 109 C109.65 109.66 111.3 110.32 113 111 C113 111.66 113 112.32 113 113 C113.66 113 114.32 113 115 113 C115 113.66 115 114.32 115 115 C115.66 115 116.32 115 117 115 C117.495 116.98 117.495 116.98 118 119 C118.66 119 119.32 119 120 119 C123.49939017 122.73268285 128 128.63495561 128 134 C128.66 134 129.32 134 130 134 C130.433125 135.36125 130.433125 135.36125 130.875 136.75 C131.86398657 139.85584779 131.86398657 139.85584779 133.0625 142.0625 C134.16523978 144.34149555 134.54292093 146.51871363 135 149 C135.33 149.66 135.66 150.32 136 151 C136.01610171 152.59678322 135.96535627 154.1945399 135.87890625 155.7890625 C135.83056641 156.73007813 135.78222656 157.67109375 135.73242188 158.640625 C135.67634766 159.62546875 135.62027344 160.6103125 135.5625 161.625 C135.51029297 162.61757812 135.45808594 163.61015625 135.40429688 164.6328125 C135.27441051 167.08884568 135.13943836 169.5444936 135 172 C134.34 172 133.68 172 133 172 C132.92652344 173.04800781 132.92652344 173.04800781 132.8515625 174.1171875 C132.77679688 175.02726562 132.70203125 175.93734375 132.625 176.875 C132.55539062 177.77992188 132.48578125 178.68484375 132.4140625 179.6171875 C132 182 132 182 130 184 C129.814375 184.99 129.814375 184.99 129.625 186 C129 188 129 188 127 189.125 C126.34 189.41375 125.68 189.7025 125 190 C124.67 190.66 124.34 191.32 124 192 C123.34 192 122.68 192 122 192 C121.01 193.98 121.01 193.98 120 196 C119.34 196 118.68 196 118 196 C118 196.66 118 197.32 118 198 C116.35 198.33 114.7 198.66 113 199 C112.505 200.485 112.505 200.485 112 202 C109.31625712 203.78916192 107.95721111 204.39082594 104.9375 205.0625 C102.74728742 205.55601159 101.01486148 205.99256926 99 207 C96.875 206.5625 96.875 206.5625 95 206 C95 206.66 95 207.32 95 208 C87.63959083 208.79725902 80.40239645 209.12886183 73 209 C73 208.34 73 207.68 73 207 C72.41992188 207.01160156 71.83984375 207.02320313 71.2421875 207.03515625 C66.7001754 207.08762174 62.47286431 206.91751063 58 206 C58 205.34 58 204.68 58 204 C56.35 204 54.7 204 53 204 C53 203.34 53 202.68 53 202 C50.36 201.67 47.72 201.34 45 201 C45 200.34 45 199.68 45 199 C44.0925 198.9175 43.185 198.835 42.25 198.75 C38.54241549 197.89440357 37.49767239 196.75605229 35 194 C34.01 193.67 33.02 193.34 32 193 C31.67 192.34 31.34 191.68 31 191 C30.01 190.67 29.02 190.34 28 190 C28 189.34 28 188.68 28 188 C27.4225 187.71125 26.845 187.4225 26.25 187.125 C25.13625 186.568125 25.13625 186.568125 24 186 C23.34 185.731875 22.68 185.46375 22 185.1875 C19.30775759 183.58898107 17.90085381 181.47687012 16 179 C15.13375 178.195625 14.2675 177.39125 13.375 176.5625 C10.79382904 173.77755239 9.93180826 171.64252318 9 168 C8.34 168 7.68 168 7 168 C6.67 167.01 6.34 166.02 6 165 C5.34 164.67 4.68 164.34 4 164 C3.3671875 161.93359375 3.3671875 161.93359375 2.875 159.4375 C2.70742187 158.61121094 2.53984375 157.78492188 2.3671875 156.93359375 C2.24601563 156.29550781 2.12484375 155.65742188 2 155 C1.34 155 0.68 155 0 155 C-0.33 152.03 -0.66 149.06 -1 146 C-1.66 146 -2.32 146 -3 146 C-3.79706768 142.50007304 -4.11863027 139.2857769 -4.09765625 135.69921875 C-4.09443359 134.72275391 -4.09121094 133.74628906 -4.08789062 132.74023438 C-4.07951172 131.73283203 -4.07113281 130.72542969 -4.0625 129.6875 C-4.05798828 128.66076172 -4.05347656 127.63402344 -4.04882812 126.57617188 C-4.03708184 124.05072118 -4.02065565 121.52539095 -4 119 C-3.34 119 -2.68 119 -2 119 C-2.020625 118.2575 -2.04125 117.515 -2.0625 116.75 C-2.00671312 114.29537721 -1.6930096 112.33890739 -1 110 C-0.34 110 0.32 110 1 110 C1 108.68 1 107.36 1 106 C1.66 105.67 2.32 105.34 3 105 C3.33 104.01 3.66 103.02 4 102 C4.66 102 5.32 102 6 102 C6.33 101.01 6.66 100.02 7 99 C8.4375 97.3125 8.4375 97.3125 10 96 C10.66 96 11.32 96 12 96 C12 95.34 12 94.68 12 94 C13.98 93.34 15.96 92.68 18 92 C18 91.34 18 90.68 18 90 C19.98 89.67 21.96 89.34 24 89 C24 88.34 24 87.68 24 87 C26.64 86.67 29.28 86.34 32 86 C32 85.34 32 84.68 32 84 C38.00860549 82.94161873 43.84627561 82.88337429 49.9375 82.9375 Z M146 96 C147.65 96 149.3 96 151 96 C151 96.66 151 97.32 151 98 C151.7425 98.061875 152.485 98.12375 153.25 98.1875 C156.8895963 99.26283527 157.79081566 100.96237153 160 104 C161.2065625 105.2065625 161.2065625 105.2065625 162.4375 106.4375 C165 109 165 109 167.5 112.0625 C169.83180029 114.80236534 172.15248357 116.82689536 175 119 C177.78453987 121.37201544 178.66782687 123.6251614 180 127 C180.66 127.33 181.32 127.66 182 128 C182 128.66 182 129.32 182 130 C182.99 130.33 183.98 130.66 185 131 C185.33 132.65 185.66 134.3 186 136 C186.66 136 187.32 136 188 136 C188.33 137.32 188.66 138.64 189 140 C189.66 140 190.32 140 191 140 C191.33 141.65 191.66 143.3 192 145 C192.66 145 193.32 145 194 145 C194.66 146.98 195.32 148.96 196 151 C196.66 151 197.32 151 198 151 C198.33 152.98 198.66 154.96 199 157 C199.66 157 200.32 157 201 157 C201.33 158.98 201.66 160.96 202 163 C202.66 163 203.32 163 204 163 C204.66 165.97 205.32 168.94 206 172 C206.66 172 207.32 172 208 172 C208.33 174.64 208.66 177.28 209 180 C209.66 180 210.32 180 211 180 C213.29612756 189.41002278 213.29612756 189.41002278 213 194 C213.66 194 214.32 194 215 194 C215.13277344 194.71027344 215.26554687 195.42054688 215.40234375 196.15234375 C215.57894531 197.07144531 215.75554687 197.99054688 215.9375 198.9375 C216.19853516 200.31228516 216.19853516 200.31228516 216.46484375 201.71484375 C216.77714988 203.95289844 216.77714988 203.95289844 218 205 C217.90968426 207.35694954 217.75311872 209.71153582 217.5625 212.0625 C217.46066406 213.35285156 217.35882813 214.64320313 217.25390625 215.97265625 C217.17011719 216.97167969 217.08632813 217.97070312 217 219 C217.66 219 218.32 219 219 219 C219.27256607 229.53922138 218.53370124 239.57904782 217 250 C216.67 250 216.34 250 216 250 C215.67 253.63 215.34 257.26 215 261 C214.34 261 213.68 261 213 261 C212.67 263.97 212.34 266.94 212 270 C211.34 270 210.68 270 210 270 C209.87625 270.845625 209.7525 271.69125 209.625 272.5625 C208.72686715 277.50223066 207.80275042 281.79587437 205 286 C204.67 286.99 204.34 287.98 204 289 C203.34 289 202.68 289 202 289 C201.87625 290.093125 201.7525 291.18625 201.625 292.3125 C201 296 201 296 199 299 C198.34 299 197.68 299 197 299 C197.33 299.99 197.66 300.98 198 302 C197.34 302 196.68 302 196 302 C196 302.99 196 303.98 196 305 C195.34 305 194.68 305 194 305 C193.67 306.65 193.34 308.3 193 310 C192.34 310 191.68 310 191 310 C190.896875 310.7425 190.79375 311.485 190.6875 312.25 C189.95066203 315.1973519 189.05200858 316.78383074 187 319 C186.34 319 185.68 319 185 319 C184.67 320.32 184.34 321.64 184 323 C183.34 323 182.68 323 182 323 C182 323.99 182 324.98 182 326 C180.71034824 327.37562854 179.37310707 328.70766393 178 330 C177.34 330.99 176.68 331.98 176 333 C175.34 333 174.68 333 174 333 C173.67 334.32 173.34 335.64 173 337 C172.34 337 171.68 337 171 337 C170.7525 337.61875 170.505 338.2375 170.25 338.875 C168.77229238 341.38710296 167.56044823 341.76107344 165 343 C164.67 343.99 164.34 344.98 164 346 C163.34 346 162.68 346 162 346 C161.67 346.99 161.34 347.98 161 349 C160.34 349 159.68 349 159 349 C159 349.66 159 350.32 159 351 C157.35546875 352.62109375 157.35546875 352.62109375 155.1875 354.4375 C152.17536735 356.97339332 152.17536735 356.97339332 149.36328125 359.72265625 C148 361 148 361 146 361 C146 361.66 146 362.32 146 363 C145.4225 363.226875 144.845 363.45375 144.25 363.6875 C141.82197954 364.91414422 141.82197954 364.91414422 140.125 367.4375 C136.66472284 371.61018716 131.96457703 373.10177937 127 375 C127 375.66 127 376.32 127 377 C125.68 377.33 124.36 377.66 123 378 C123 378.66 123 379.32 123 380 C122.360625 380.12375 121.72125 380.2475 121.0625 380.375 C120.0415625 380.684375 120.0415625 380.684375 119 381 C118.67 381.66 118.34 382.32 118 383 C115.29383957 386.82046178 111.3388233 387.07533274 107 388 C107 388.66 107 389.32 107 390 C106.401875 390.28875 105.80375 390.5775 105.1875 390.875 C102.80672208 392.04742026 102.80672208 392.04742026 100 394 C99.01 394 98.02 394 97 394 C97 394.66 97 395.32 97 396 C94.36 396.66 91.72 397.32 89 398 C89 398.66 89 399.32 89 400 C87.02 400.33 85.04 400.66 83 401 C83 401.66 83 402.32 83 403 C82.030625 403.12375 81.06125 403.2475 80.0625 403.375 C79.051875 403.58125 78.04125 403.7875 77 404 C76.67 404.66 76.34 405.32 76 406 C75.34 405.67 74.68 405.34 74 405 C74 405.66 74 406.32 74 407 C72.02 407.33 70.04 407.66 68 408 C68 408.66 68 409.32 68 410 C66.02 410.33 64.04 410.66 62 411 C62 411.66 62 412.32 62 413 C58.37 413.66 54.74 414.32 51 415 C51 415.66 51 416.32 51 417 C48.69 417.66 46.38 418.32 44 419 C44 419.33 44 419.66 44 420 C38.06 421.485 38.06 421.485 32 423 C32 423.33 32 423.66 32 424 C31.39671875 424.13277344 30.7934375 424.26554687 30.171875 424.40234375 C29.37265625 424.57894531 28.5734375 424.75554687 27.75 424.9375 C26.96109375 425.11152344 26.1721875 425.28554688 25.359375 425.46484375 C22.15604926 426.19142591 19.10009958 426.96454807 16 428.0625 C13 429 13 429 9 429 C9 429.66 9 430.32 9 431 C8.28972656 431.04898437 7.57945312 431.09796875 6.84765625 431.1484375 C5.46900391 431.26058594 5.46900391 431.26058594 4.0625 431.375 C3.14597656 431.44460938 2.22945312 431.51421875 1.28515625 431.5859375 C0.53105469 431.72257812 -0.22304687 431.85921875 -1 432 C-1.33 432.66 -1.66 433.32 -2 434 C-3.65 433.67 -5.3 433.34 -7 433 C-7 433.66 -7 434.32 -7 435 C-10.63 435.33 -14.26 435.66 -18 436 C-18 436.66 -18 437.32 -18 438 C-23.26661017 439.1235435 -28.58350995 439.78501495 -33.91796875 440.5 C-36.9024197 440.82695515 -36.9024197 440.82695515 -39 442 C-40.67654729 441.72057545 -42.34608154 441.39171753 -44 441 C-44 441.66 -44 442.32 -44 443 C-44.97582031 443.13277344 -45.95164062 443.26554687 -46.95703125 443.40234375 C-48.22933594 443.57894531 -49.50164062 443.75554687 -50.8125 443.9375 C-52.07707031 444.11152344 -53.34164062 444.28554688 -54.64453125 444.46484375 C-57.98321703 444.90392455 -57.98321703 444.90392455 -61 446 C-63.6875 445.5625 -63.6875 445.5625 -66 445 C-66 444.01 -66 443.02 -66 442 C-66.66 442 -67.32 442 -68 442 C-68.1953125 439.94921875 -68.390625 437.8984375 -68.5859375 435.84765625 C-68.72257812 435.23792969 -68.85921875 434.62820313 -69 434 C-69.66 433.67 -70.32 433.34 -71 433 C-72.44512404 429.3871899 -73 426.93312158 -73 423 C-73.66 423 -74.32 423 -75 423 C-75.495 419.535 -75.495 419.535 -76 416 C-76.66 416 -77.32 416 -78 416 C-78.66 412.37 -79.32 408.74 -80 405 C-80.66 405 -81.32 405 -82 405 C-82.33 402.36 -82.66 399.72 -83 397 C-83.66 397 -84.32 397 -85 397 C-85.99 393.7 -86.98 390.4 -88 387 C-88.33 387 -88.66 387 -89 387 C-89.33 384.36 -89.66 381.72 -90 379 C-90.66 379 -91.32 379 -92 379 C-92.66 375.37 -93.32 371.74 -94 368 C-94.66 368 -95.32 368 -96 368 C-96.66 365.69 -97.32 363.38 -98 361 C-98.33 361 -98.66 361 -99 361 C-100.13764351 356.73383684 -101 353.43513689 -101 349 C-101.66 349 -102.32 349 -103 349 C-103.28875 347.9275 -103.5775 346.855 -103.875 345.75 C-104.81937632 342.18759512 -104.81937632 342.18759512 -106.125 339.8125 C-107 338 -107 338 -107 334 C-107.66 333.67 -108.32 333.34 -109 333 C-108.67 332.34 -108.34 331.68 -108 331 C-108.66 331 -109.32 331 -110 331 C-110.33 328.36 -110.66 325.72 -111 323 C-111.66 323 -112.32 323 -113 323 C-113.12375 321.865625 -113.2475 320.73125 -113.375 319.5625 C-113.58125 318.386875 -113.7875 317.21125 -114 316 C-114.66 315.67 -115.32 315.34 -116 315 C-116.6328125 312.71484375 -116.6328125 312.71484375 -117.125 309.9375 C-117.29257813 309.01839844 -117.46015625 308.09929687 -117.6328125 307.15234375 C-117.75398438 306.44207031 -117.87515625 305.73179687 -118 305 C-118.66 305 -119.32 305 -120 305 C-120.66 301.37 -121.32 297.74 -122 294 C-122.66 294 -123.32 294 -124 294 C-124.33 291.36 -124.66 288.72 -125 286 C-125.66 286 -126.32 286 -127 286 C-127.66 282.37 -128.32 278.74 -129 275 C-129.66 275 -130.32 275 -131 275 C-131.33 272.69 -131.66 270.38 -132 268 C-132.66 268 -133.32 268 -134 268 C-134.66 264.37 -135.32 260.74 -136 257 C-136.66 257 -137.32 257 -138 257 C-138.33 254.69 -138.66 252.38 -139 250 C-139.66 250 -140.32 250 -141 250 C-141 248.02 -141 246.04 -141 244 C-138.69 244 -136.38 244 -134 244 C-134 244.33 -134 244.66 -134 245 C-127.4 246.32 -120.8 247.64 -114 249 C-114 249.33 -114 249.66 -114 250 C-110.37 250.66 -106.74 251.32 -103 252 C-103 252.66 -103 253.32 -103 254 C-100.69 254 -98.38 254 -96 254 C-96 254.66 -96 255.32 -96 256 C-94.2365625 255.9690625 -94.2365625 255.9690625 -92.4375 255.9375 C-88.52586533 255.93052739 -84.85502056 256.35749657 -81 257 C-81 257.33 -81 257.66 -81 258 C-78.03 258.33 -75.06 258.66 -72 259 C-72 259.33 -72 259.66 -72 260 C-60.48204793 261.69297332 -49.04661244 263.26635538 -37.41015625 263.7890625 C-33.89294394 264.00662202 -30.48344592 264.47232104 -27 265 C-20.619812 265.95038217 -14.4464892 266.12029611 -8 266.0625 C-7.03449219 266.05798828 -6.06898438 266.05347656 -5.07421875 266.04882812 C-2.71607911 266.03715417 -0.35807398 266.02078021 2 266 C2 265.67 2 265.34 2 265 C8.27 265 14.54 265 21 265 C21 264.67 21 264.34 21 264 C24.63 264.33 28.26 264.66 32 265 C32 264.34 32 263.68 32 263 C37.61 262.67 43.22 262.34 49 262 C49.33 261.34 49.66 260.68 50 260 C51.98 260 53.96 260 56 260 C56 259.67 56 259.34 56 259 C56.78246094 258.95101562 57.56492187 258.90203125 58.37109375 258.8515625 C59.38300781 258.77679688 60.39492188 258.70203125 61.4375 258.625 C62.95150391 258.52058594 62.95150391 258.52058594 64.49609375 258.4140625 C65.32238281 258.27742187 66.14867187 258.14078125 67 258 C67.33 257.34 67.66 256.68 68 256 C69.32 256.33 70.64 256.66 72 257 C72 256.34 72 255.68 72 255 C74.97 254.67 77.94 254.34 81 254 C81 253.34 81 252.68 81 252 C84.6208201 250.98617037 88.27811418 250.50102309 92 250 C92 249.34 92 248.68 92 248 C93.98 247.67 95.96 247.34 98 247 C98 246.34 98 245.68 98 245 C102.455 244.01 102.455 244.01 107 243 C107 242.34 107 241.68 107 241 C108.98 240.67 110.96 240.34 113 240 C113 239.34 113 238.68 113 238 C114.98 237.34 116.96 236.68 119 236 C119 235.34 119 234.68 119 234 C121.63892176 232.21694476 123.97178863 231.00940379 127 230 C127 229.34 127 228.68 127 228 C127.99 227.67 128.98 227.34 130 227 C131.71358643 225.38161281 133.3707726 223.70328319 135 222 C135.6084375 221.4121875 136.216875 220.824375 136.84375 220.21875 C137.4728125 219.6103125 138.101875 219.001875 138.75 218.375 C139.63945313 217.52035156 139.63945313 217.52035156 140.546875 216.6484375 C142.2327019 214.95208885 142.2327019 214.95208885 143 212 C143.66 211.67 144.32 211.34 145 211 C145.33 210.01 145.66 209.02 146 208 C146.66 208 147.32 208 148 208 C148.33 206.68 148.66 205.36 149 204 C149.66 204 150.32 204 151 204 C151.33 202.02 151.66 200.04 152 198 C152.66 198 153.32 198 154 198 C154 197.01 154 196.02 154 195 C154.66 195 155.32 195 156 195 C156.33 192.03 156.66 189.06 157 186 C157.66 186 158.32 186 159 186 C159.06058594 185.00742188 159.12117188 184.01484375 159.18359375 182.9921875 C159.73727826 173.99063658 160.33947064 164.99444236 161 156 C160.34 156 159.68 156 159 156 C158.34 149.73 157.68 143.46 157 137 C156.34 137 155.68 137 155 137 C154.34 133.04 153.68 129.08 153 125 C152.34 125 151.68 125 151 125 C150.34 122.69 149.68 120.38 149 118 C148.67 118 148.34 118 148 118 C147.51171875 115.98177083 147.0234375 113.96354167 146.53515625 111.9453125 C146.05153008 109.9414343 146.05153008 109.9414343 145 108 C145 106 145 104 145 102 C144.56058477 99.73433657 144.56058477 99.73433657 144 98 C144.66 98 145.32 98 146 98 C146 97.34 146 96.68 146 96 Z M217 228 C217 229.65 217 231.3 217 233 C217.33 233 217.66 233 218 233 C218 231.35 218 229.7 218 228 C217.67 228 217.34 228 217 228 Z M8 262 C10 263 10 263 10 263 Z " fill="#2C2B64" transform="translate(217,24)"/>
</svg>
