<?xml version="1.0" encoding="UTF-8" standalone="no"?>
<!-- Created with Inkscape (http://www.inkscape.org/) -->

<svg
   viewBox="0 0 14 14"
   version="1.1"
   id="svg5"
   inkscape:version="1.1.2 (0a00cf5339, 2022-02-04)"
   sodipodi:docname="phacility.svg"
   xmlns:inkscape="http://www.inkscape.org/namespaces/inkscape"
   xmlns:sodipodi="http://sodipodi.sourceforge.net/DTD/sodipodi-0.dtd"
   xmlns="http://www.w3.org/2000/svg"
   xmlns:svg="http://www.w3.org/2000/svg">
  <sodipodi:namedview
     id="namedview7"
     pagecolor="#ffffff"
     bordercolor="#999999"
     borderopacity="1"
     inkscape:pageshadow="0"
     inkscape:pageopacity="0"
     inkscape:pagecheckerboard="0"
     inkscape:document-units="mm"
     showgrid="false"
     width="14mm"
     inkscape:showpageshadow="false"
     showborder="false"
     inkscape:zoom="5.6340776"
     inkscape:cx="8.4308388"
     inkscape:cy="27.422412"
     inkscape:window-width="1360"
     inkscape:window-height="744"
     inkscape:window-x="0"
     inkscape:window-y="16"
     inkscape:window-maximized="0"
     inkscape:current-layer="layer1" />
  <defs
     id="defs2" />
  <g
     inkscape:label="Слой 1"
     inkscape:groupmode="layer"
     id="layer1">
    <path
       id="path1029"
       style="fill:#171c20;fill-opacity:1;stroke:#ef0000;stroke-width:0;stroke-linecap:butt;stroke-linejoin:miter;stroke-miterlimit:4;stroke-dasharray:none;stroke-opacity:1"
       d="M 6.9797618,2.0946297 C 6.5596352,2.0973517 6.1395551,2.1481828 5.7197456,2.2363762 4.9252614,2.4663426 4.1926852,2.8507584 3.5648758,3.4938098 L 1.1688196,5.9340841 C 1.0282239,6.056727 0.91446127,6.2025263 0.81688084,6.362217 0.60111856,6.7625941 0.6861876,7.1214023 0.75199958,7.4828631 0.86160105,7.780117 1.0704764,8.0192287 1.3042125,8.24377 c 1.0119061,1.0146104 1.9770964,2.170856 3.0617592,2.91805 0.4131932,0.252041 0.8650555,0.460688 1.3750048,0.604283 0.8011015,0.16353 1.5901354,0.192951 2.3623241,0.03575 0.7417773,-0.196878 1.4167985,-0.486691 1.9546474,-0.967535 L 12.715647,8.2117426 C 13.17574,7.7645564 13.34716,7.3592842 13.318173,6.9830819 13.330899,6.4565956 13.052088,6.1176088 12.744988,5.7968317 L 10.452556,3.508687 C 9.8308929,2.9569491 9.1773452,2.4697232 8.2398815,2.2414903 7.8200664,2.1372803 7.3998885,2.0919073 6.9797618,2.0946297 Z m -0.04644,0.99264 a 3.8678627,3.9178154 0 0 1 3.9356922,3.8241641 l 0.0011,0.093034 A 3.8678627,3.9178154 0 0 1 7.02522,10.922235 3.8678627,3.9178154 0 0 1 3.134625,7.0510108 3.8678627,3.9178154 0 0 1 6.9333218,3.0872697 Z" />
    <path
       id="path3409"
       style="fill:#171c20;fill-opacity:1;stroke:#ef0000;stroke-width:0;stroke-linecap:butt;stroke-linejoin:miter;stroke-miterlimit:4;stroke-dasharray:none;stroke-opacity:1"
       d="m 7.6747547,4.5787091 c 0,0 -0.5101236,0.5371736 -0.5380589,0.5766467 -7.775e-4,0.0011 -0.3199466,0.00471 -0.3194467,0.00651 L 6.2632284,4.5818086 5.6994959,4.8100807 5.7340544,5.5628774 5.5088302,5.7829876 4.7423959,5.7672839 4.5218208,6.3020885 5.0735172,6.8500654 5.0615326,7.2180179 4.5694485,7.7212599 4.7855295,8.252655 5.56338,8.2616432 5.7757934,8.4892438 5.7645837,9.2337239 6.3386475,9.4739802 6.8536156,8.9504887 7.2161441,8.9573076 7.7328686,9.4729472 8.2816721,9.2519071 8.2646769,8.4931698 8.4891264,8.2896412 9.2325734,8.2999727 9.4775307,7.7580395 8.9333763,7.2497869 8.9345136,6.9011023 9.4399767,6.3844296 9.183345,5.8148084 8.4371604,5.8189409 8.2139508,5.5927868 8.2390042,4.8700544 Z M 6.9474763,6.2183524 a 0.8216895,0.82168302 0 0 1 0.8360679,0.8020259 l 2.645e-4,0.019526 A 0.8216895,0.82168302 0 0 1 6.967009,7.8615602 0.8216895,0.82168302 0 0 1 6.1404977,7.0496678 0.8216895,0.82168302 0 0 1 6.9474827,6.2183524 Z" />
  </g>
</svg>
