<?xml version="1.0" encoding="UTF-8" standalone="no"?>
<!-- Created with Inkscape (http://www.inkscape.org/) -->

<svg
   viewBox="0 0 14 14"
   version="1.1"
   id="svg12946"
   inkscape:version="1.1.2 (0a00cf5339, 2022-02-04)"
   sodipodi:docname="plnkr.svg"
   xmlns:inkscape="http://www.inkscape.org/namespaces/inkscape"
   xmlns:sodipodi="http://sodipodi.sourceforge.net/DTD/sodipodi-0.dtd"
   xmlns="http://www.w3.org/2000/svg"
   xmlns:svg="http://www.w3.org/2000/svg">
  <sodipodi:namedview
     id="namedview12948"
     pagecolor="#ffffff"
     bordercolor="#999999"
     borderopacity="1"
     inkscape:pageshadow="0"
     inkscape:pageopacity="0"
     inkscape:pagecheckerboard="0"
     inkscape:document-units="mm"
     showgrid="false"
     width="14mm"
     inkscape:showpageshadow="false"
     showborder="false"
     inkscape:zoom="5.3921852"
     inkscape:cx="52.946994"
     inkscape:cy="28.096216"
     inkscape:window-width="1360"
     inkscape:window-height="744"
     inkscape:window-x="0"
     inkscape:window-y="16"
     inkscape:window-maximized="0"
     inkscape:current-layer="layer1" />
  <defs
     id="defs12943" />
  <g
     inkscape:label="Слой 1"
     inkscape:groupmode="layer"
     id="layer1">
    <g
       id="g16101"
       transform="matrix(0.10368621,0,0,0.10339427,12.122469,-3.34862)">
      <path
         id="path13135"
         style="fill:#000000;fill-opacity:1;stroke:#e70000;stroke-width:0;stroke-linecap:butt;stroke-linejoin:miter;stroke-miterlimit:4;stroke-dasharray:none;stroke-opacity:1"
         d="m -98.117652,32.387268 c -13.667318,0.06248 -18.333938,7.710035 -18.797308,18.899106 l 0.11473,98.146976 c 0.12515,13.7456 7.36641,17.85387 17.282147,18.33997 l 99.13606626,0.0176 C 8.913973,167.48857 16.92249,165.29965 18.10781,153.10755 L 18.029779,48.986255 C 17.762259,44.195919 16.675575,40.215929 14.133374,37.422104 11.643936,34.686251 7.7483697,33.093362 2.8203702,32.497856 l -99.5872022,-0.0925 c -0.459774,-0.01391 -0.909939,-0.0201 -1.35082,-0.01809 z m 2.731614,8.450646 c 1.380062,-0.009 2.906681,0.02462 4.596104,0.0956 l 87.3770941,0.08062 c 6.4750684,-0.214122 9.163407,0.111064 11.3476271,2.503207 2.2305008,2.442832 2.0749048,7.671684 1.9972946,11.914 l 0.068728,91.039919 c 0.217842,15.94907 -6.2868189,11.96906 -16.2232988,12.83901 l -86.9812522,-0.0155 c -10.643249,0.5873 -16.126179,-0.72839 -15.162899,-16.03572 l -0.10077,-85.816979 c 0.1191,-12.46405 -0.2592,-16.517205 13.081372,-16.604155 z" />
      <path
         style="fill:#000000;fill-opacity:0.999878;stroke:#fa0000;stroke-width:0;stroke-linecap:butt;stroke-linejoin:miter;stroke-miterlimit:4;stroke-dasharray:none;stroke-opacity:1"
         d="m -59.184981,53.439443 18.255826,0.18638 0.0179,56.500837 c 0.0382,2.48149 1.39512,1.46208 2.08456,0.62701 l 27.95144,-27.893207 0.20163,24.293187 -39.21798,39.89486 -39.533116,-39.63188 0.06961,-24.832057 28.194145,27.962377 c 1.400938,1.60686 1.870021,1.35058 1.892816,-0.39255 z"
         id="path14597"
         sodipodi:nodetypes="cccccccccccc" />
    </g>
  </g>
</svg>
