<svg xmlns="http://www.w3.org/2000/svg" style="display:block" viewBox="0 0 582 753"><path d="m0 0 2.416 1.03C20.24 8.737 36.712 19.07 52 31l3.05 2.371C61.114 38.21 66.614 43.427 72 49l5 5 1.95 1.996c26.666 28.342 37.077 65.633 36.182 103.786-1.37 33.452-13.623 72.74-36.132 98.218h-2l-1 270h-522V103c2.452 2.452 4.51 4.517 6.55 7.207l1.357 1.767 1.406 1.838c3.47 4.483 6.955 8.711 11.078 12.618 1.816 1.772 3.456 3.646 5.109 5.57 5.68 6.566 11.895 12.378 18.5 18l2.508 2.172c14.512 12.37 29.95 23.346 46.492 32.828l2.542 1.46c42.472 24.2 88.905 39.479 137.208 46.79l3.001.458c20.235 2.876 40.395 3.668 60.811 3.605l3.727-.006c18.419-.046 36.475-.525 54.711-3.307l3.634-.536C-37.682 225.977 13.364 210.416 52 177l2.64-2.27c4.232-3.416 4.232-3.416 7.36-7.73h2c-9.949-24.293-9.949-24.293-23-47l-1.303-1.936c-5.717-8.369-12.065-15.94-19.056-23.267a103 103 0 0 1-5.703-6.547C10.93 83.49 5.858 79.843 1 76l-2.406-2C-45.57 37.492-103.92 21.286-160 16l-3.094-.292c-10.753-.892-21.498-.908-32.281-.896l-2.96.002c-14.643.025-29.124.324-43.665 2.186l-3.158.39c-35.62 4.518-69.94 13.006-101.866 29.759C-349 48-349 48-352 48c16.325-13.85 34.444-25.37 53-36l3.367-1.934C-204.157-41.158-95.003-40.69 0 0m-415.375 308.313c-9.915 12.003-12.807 26.399-11.84 41.636 1.58 15.02 9.86 26.765 21.215 36.051 9.968 7.992 20.6 14.376 31.688 20.66 34.953 19.871 34.953 19.871 39.769 33.973 1.913 8.342 1.08 16.09-3.457 23.367-4.747 6.282-12.416 8.794-20 10-20.197 1.463-36.372-5.902-53.704-15.166l-2.636-1.408-2.355-1.269c-2.37-1.19-4.842-2.172-7.305-3.157v42c5.936 2.577 5.936 2.577 11.934 4.316l2.688.625c30.845 6.812 66.539 10.65 94.62-6.976 13.75-9.721 21.134-21.909 24.25-38.367 2.007-14.217.328-30.719-8.492-42.598-2.864-3.473-5.887-6.75-9-10l-1.645-1.836c-9.63-10.385-22.31-16.944-34.582-23.64C-377.587 358.31-377.587 358.31-383 346c-1.099-6.326-.78-12.707 2.555-18.316 4.512-5.257 11.371-7.57 18.066-8.52 18.777-.912 36.826 4.71 53.516 12.988 1.825.986 1.825.986 3.863.848v-39c-34.464-7.255-82.837-14.761-110.375 14.313m340.988 1.726C-91.59 330.95-98.309 359.425-99 386l-.062 1.995C-99.992 421.35-94.743 457.055-72 483h2l.727 1.79c5.14 8.924 19.68 14.343 29.167 16.998C-12.848 509 18.655 505.673 44 493v-38l-16 8c-15.61 7.635-32.072 11.132-49.187 6.375-5.4-1.957-9.652-4.426-13.813-8.375l-1.828-1.707c-16.987-17.54-18.664-47.73-18.525-70.779.409-21.521 2.41-46.912 18.478-62.952 7.023-5.801 14.78-6.888 23.688-6.5 6.69.745 10.677 2.358 15.437 7.25C8.318 335.632 7.287 340.875 8 353h44c-1.333-19.996-5.123-35.653-19.625-49.937C23.201 295.413 11.648 291.126 0 289l-2.145-.395c-25.967-3.723-53.72 1.895-72.242 21.434M-256 291v211c49.997 3.408 49.997 3.408 103-7l2.824-1.309c11.698-5.888 19.136-14.451 23.426-26.753 4.707-14.374 5.327-34.758-.25-48.938l-.996-2.578c-5.55-12.519-15.82-20.96-28.192-26.36L-159 388l1.793-1.172 2.394-1.578 2.356-1.547c9.524-6.602 15.566-15.88 18.008-27.273 2.09-15.96 1.717-32.153-8.043-45.567A58.6 58.6 0 0 0-149 304l-2.187-2c-28.054-19.95-77.845-11-104.813-11" style="fill:#12876f" transform="translate(446 221)"/><path d="m0 0-2.492 2.273c-9.652 8.834-19.061 17.645-27.238 27.899-2.304 2.87-4.688 5.658-7.082 8.453-28.368 34.156-49.689 78.016-45.742 123.432 2.9 27.041 14.464 51.527 31.656 72.357L-50 236c-1.097 3.29-1.848 3.968-4.437 6.125l-2.176 1.852L-59 246c-5.785 5.03-11.176 10.033-16 16q3.537-1.487 7.063-3l2.17-.932c5.806-2.54 11.354-5.432 16.804-8.666C-46.32 247.903-44.4 247-41.336 247c3.038 1.3 4.428 2.952 6.523 5.5 13.261 15.347 30.31 26.635 47.525 37.098Q15 291 17.252 292.463c7.32 4.647 15.131 7.749 23.186 10.85l2.192.85c80.904 31.39 170.247 43.107 252.407 7.966 2.588-1.142 5.167-2.292 7.72-3.512 2.243-.617 2.243-.617 4.2.121 2.257 1.394 3.407 2.694 4.961 4.832l1.6 2.194 1.67 2.361 1.736 2.432c4.897 6.97 9.198 14.169 13.157 21.707a219 219 0 0 0 2.65 4.814c.72 1.323.72 1.323 1.457 2.672l1.23 2.234C336 354 336 354 335.41 356.008c-23.936 33.816-83.828 51.027-121.813 57.799-4.855.809-9.72 1.529-14.597 2.193l-2.452.339C114.598 427.268 7.993 410.087-60 360c-.57-.415-1.14-.83-1.728-1.256-8.114-5.928-15.575-12.418-22.828-19.363a452 452 0 0 0-3.874-3.65C-99.013 325.58-107.502 313.544-115 301l-2.02-3.336c-12.577-21.653-19.951-47.816-20.218-72.879l-.03-2.317c-.18-17.85.335-34.967 4.268-52.468l.551-2.527C-121.737 119.61-95.664 75.373-61 41l2.25-2.25L-56 36l1.754-1.895C-45.26 24.642-13.551-4.517 0 0" style="fill:#0f7bbf" transform="translate(151 21)"/><path d="m0 0 2.416 1.03C20.24 8.737 36.712 19.07 52 31l3.05 2.371C61.114 38.21 66.614 43.427 72 49l5 5 1.95 1.996c26.666 28.342 37.077 65.633 36.182 103.786-1.37 33.452-13.623 72.74-36.132 98.218h-2l-1 270h-522v-1H75l-.312-156.437-.076-49.365c-.037-14.624-.037-14.624-.077-29.248a9342 9342 0 0 1-.032-19.516q-.007-11.269-.048-22.538c-.014-3.839-.024-7.677-.02-11.515.012-14.719.02-28.998-3.435-43.381l-.716-3.19a251 251 0 0 0-1.847-7.498l-.63-2.505C66.154 173.75 66.154 173.75 62 167h2c-9.949-24.293-9.949-24.293-23-47l-1.303-1.936c-5.717-8.369-12.065-15.94-19.056-23.267a103 103 0 0 1-5.703-6.547C10.93 83.49 5.858 79.843 1 76l-2.406-2C-45.57 37.492-103.92 21.286-160 16l-3.094-.292c-10.753-.892-21.498-.908-32.281-.896l-2.96.002c-14.643.025-29.124.324-43.665 2.186l-3.158.39c-35.62 4.518-69.94 13.006-101.866 29.759C-349 48-349 48-352 48c16.325-13.85 34.444-25.37 53-36l3.367-1.934C-204.157-41.158-95.003-40.69 0 0" style="fill:#d1d1e5" transform="translate(446 221)"/><path d="M0 0h120c-3.295 3.295-5.147 4.79-9.062 6.875C83.7 22.42 58.436 45.754 40 71l-2.086 2.707C16.468 101.977 4.087 135.768 1 171H0z" style="fill:#f6c613"/><path d="M0 0c3.339-.035 6.677-.056 10.016-.074l2.838-.03c11.843-.05 23.787 1.474 32.92 9.702C52.26 16.543 53.975 24.68 54 34c-.535 9.76-2.622 17.067-9.937 23.777C32.388 66.555 15.03 66.482 1 66c-1-1-1-1-1.12-3.588l.006-3.492v-3.944l.016-4.292.005-4.368q.006-5.758.024-11.516.014-5.872.02-11.743Q-.033 11.528 0 0" style="fill:#12876f" transform="translate(229 627)"/><path d="M0 0c30.027 0 30.027 0 37.875 6.313 4.971 6.287 5.605 11.853 5.5 19.625l.035 2.591c-.03 6.484-.915 12.103-4.883 17.46C27.113 55.495 14.412 53 0 53z" style="fill:#12876f" transform="translate(229 543)"/><path d="M0 0h1c.285 5.591-.603 9.922-2.437 15.188l-.808 2.354C-8.127 34.198-16.236 49.704-25 65l-1.695 3.066L-28 70h-2l-.839-1.541a2665 2665 0 0 0-3.849-7.022l-1.318-2.423c-2.108-3.826-4.242-7.437-6.889-10.916L-45 45c1.3-3.902 3.74-5.298 6.938-7.625a186 186 0 0 0 14.921-12.422 97 97 0 0 1 5.328-4.515c6.23-5.399 11.158-12.055 16.211-18.532z" style="fill:#0f7bbf" transform="translate(581 217)"/><path d="m0 0 2 1h-3z" style="fill:#d1d1e5" transform="translate(92 270)"/></svg>