<?xml version="1.0" encoding="UTF-8"?>
<!-- Generator: visioncortex VTracer -->
<svg id="svg" version="1.1" xmlns="http://www.w3.org/2000/svg" style="display: block;" viewBox="0 0 582 753"><path d="M0 0 C0.79728516 0.33999023 1.59457031 0.67998047 2.41601562 1.03027344 C20.24021168 8.73739947 36.71159062 19.07037317 52 31 C52.51385254 31.39815918 53.02770508 31.79631836 53.55712891 32.20654297 C60.17006167 37.36242549 66.1737832 42.97164915 72 49 C72.825 49.804375 73.65 50.60875 74.5 51.4375 C75.33807426 52.28701555 76.17064795 53.14196718 77 54 C77.64324219 54.65871094 78.28648437 55.31742187 78.94921875 55.99609375 C112.86652911 92.0443346 121.08074062 142.43340547 110.81640625 189.57421875 C105.29449629 213.30241135 95.40695085 239.42906283 79 258 C78.34 258 77.68 258 77 258 C76.67 347.1 76.34 436.2 76 528 C-96.26 528 -268.52 528 -446 528 C-446 387.75 -446 247.5 -446 103 C-443.54769971 105.45230029 -441.4904178 107.51690811 -439.44921875 110.20703125 C-439.0015918 110.7901709 -438.55396484 111.37331055 -438.09277344 111.97412109 C-437.39716309 112.88411865 -437.39716309 112.88411865 -436.6875 113.8125 C-433.21730788 118.29473554 -429.73178465 122.52321359 -425.609375 126.4296875 C-423.79340602 128.20157957 -422.15341631 130.07589164 -420.5 132 C-414.82000415 138.56551859 -408.60460654 144.37808578 -402 150 C-401.17242187 150.71671875 -400.34484375 151.4334375 -399.4921875 152.171875 C-385.0247887 164.57693847 -369.52799707 175.52560934 -353 185 C-351.74195557 185.72268066 -351.74195557 185.72268066 -350.45849609 186.45996094 C-307.92681462 210.69395331 -261.63857555 225.92550952 -213.25 233.25 C-212.2595166 233.40106201 -211.2690332 233.55212402 -210.24853516 233.70776367 C-190.63844049 236.49505707 -171.04268923 237.37966941 -151.25296402 237.31805801 C-149.40565148 237.3124025 -147.55834817 237.30959163 -145.71102905 237.30697632 C-127.31682332 237.26914589 -109.21247576 236.77794659 -91 234 C-89.78860303 233.82109387 -88.57717636 233.64238877 -87.36572266 233.46386719 C-37.66358802 226.03784848 13.3808682 210.40195095 52 177 C52.87140625 176.25105469 53.7428125 175.50210938 54.640625 174.73046875 C58.87200642 171.31364181 58.87200642 171.31364181 62 167 C62.66 167 63.32 167 64 167 C54.05128968 142.70767487 54.05128968 142.70767487 41 120 C40.57009766 119.3611084 40.14019531 118.7222168 39.69726562 118.06396484 C33.58806044 109.12089113 26.70580225 101.14886174 19.23632812 93.32617188 C17.71902147 91.69860281 16.32521404 89.98863024 14.9375 88.25 C11.30853973 83.93994454 6.79734241 80.57635101 2.390625 77.10546875 C1.11072274 76.08801836 -0.14884015 75.04511988 -1.40625 74 C-45.56874768 37.49233526 -103.92010416 21.28633204 -160 16 C-161.02109863 15.90356201 -162.04219727 15.80712402 -163.09423828 15.70776367 C-173.84481319 14.81572173 -184.59282654 14.80018833 -195.375 14.8125 C-196.84064896 14.81340637 -196.84064896 14.81340637 -198.33590698 14.81433105 C-212.98804006 14.83892096 -227.44837912 15.13674444 -242 17 C-243.04220703 17.12890625 -244.08441406 17.2578125 -245.15820312 17.390625 C-280.84911246 21.91748138 -315.08202837 30.38737625 -347.02416992 47.14892578 C-349 48 -349 48 -352 48 C-335.69186436 34.16513612 -317.5532905 22.59655806 -299 12 C-298.44602539 11.68047363 -297.89205078 11.36094727 -297.32128906 11.03173828 C-227.15754268 -29.08212135 -141.79983182 -39.72696667 0 0 Z M-420.49609375 315.375 C-429.3744888 331.8145208 -429.67611901 350.84747011 -421.76171875 367.625 C-411.98483307 386.02854951 -391.84888481 396.72072246 -374.3125 406.66015625 C-366.72593426 410.97311392 -359.23805847 415.30686184 -352.125 420.375 C-351.57255615 420.76743896 -351.0201123 421.15987793 -350.45092773 421.56420898 C-339.56004395 429.52847508 -333.26514741 438.23280692 -333.6484375 452.03125 C-334.42731532 458.60844049 -337.30444462 465.27174998 -343 469 C-366.959929 480.66366181 -390.08464823 470.38954063 -411.70361328 458.83398438 C-412.57356934 458.36927734 -413.44352539 457.90457031 -414.33984375 457.42578125 C-415.11706787 457.00723877 -415.89429199 456.58869629 -416.69506836 456.1574707 C-419.08448536 454.95757387 -421.50501809 453.9583356 -424 453 C-424.17731136 458.9260592 -424.29999299 464.8514368 -424.38452148 470.77954102 C-424.41975122 472.79640256 -424.46754103 474.81308502 -424.52807617 476.8293457 C-424.61288898 479.72652256 -424.65266072 482.62134088 -424.68359375 485.51953125 C-424.71972275 486.42274612 -424.75585175 487.325961 -424.79307556 488.25654602 C-424.96117841 492.73995801 -424.96117841 492.73995801 -422.5684967 496.20552063 C-420.72069152 497.0303105 -418.97138754 497.55315259 -417 498 C-416.1551001 498.25338135 -415.3102002 498.5067627 -414.43969727 498.76782227 C-413.26491821 499.03937134 -413.26491821 499.03937134 -412.06640625 499.31640625 C-411.17928955 499.52241455 -410.29217285 499.72842285 -409.37817383 499.94067383 C-375.48803114 507.42512657 -333.58705066 511.53937327 -306 486 C-292.47669756 472.09417487 -287.08964529 451.85547308 -290.7265625 432.87890625 C-293.53470498 419.93677049 -298.82095967 411.57952202 -308 402 C-308.54269531 401.39414062 -309.08539063 400.78828125 -309.64453125 400.1640625 C-319.27367321 389.77921573 -331.95577067 383.22042734 -344.22677612 376.52349854 C-351.24221972 372.6933955 -358.17332368 368.8409301 -364.8125 364.375 C-365.37316162 363.99794922 -365.93382324 363.62089844 -366.51147461 363.23242188 C-375.05544719 357.33544717 -383.229519 351.12396263 -383.625 339.9375 C-383.1750347 332.41254831 -381.53132196 327.20182541 -374.9375 323.125 C-354.08948839 313.20538157 -328.23143743 322.54549116 -308.86328125 332.15234375 C-307.03776001 333.13803016 -307.03776001 333.13803016 -305 333 C-305 320.13 -305 307.26 -305 294 C-340.68941598 286.48643874 -396.98224921 278.04753922 -420.49609375 315.375 Z M-81.30859375 320.05859375 C-92.95460404 340.31135529 -98.39332629 362.65625065 -99 386 C-99.0306958 386.98734131 -99.0306958 386.98734131 -99.06201172 387.99462891 C-99.94391239 419.61914965 -95.21613333 452.007556 -76 478 C-75.64228516 478.49000488 -75.28457031 478.98000977 -74.91601562 479.48486328 C-73.059424 482.30074171 -73.059424 482.30074171 -70 483 C-69.71898437 483.59039063 -69.43796875 484.18078125 -69.1484375 484.7890625 C-63.06501803 496.50067958 -43.0663766 501.38750894 -31 504 C-29.65808594 504.29197266 -29.65808594 504.29197266 -28.2890625 504.58984375 C-4.25049039 507.58752792 22.21032506 503.89483747 44 493 C44.2939357 491.36478476 44.2939357 491.36478476 44.22705078 489.39819336 C44.22689972 488.63748032 44.22674866 487.87676727 44.22659302 487.09300232 C44.21627045 486.26695999 44.20594788 485.44091766 44.1953125 484.58984375 C44.1924826 483.74780899 44.18965271 482.90577423 44.18673706 482.03822327 C44.17550482 479.33784009 44.15039527 476.63778362 44.125 473.9375 C44.11497411 472.1113329 44.10584759 470.28516062 44.09765625 468.45898438 C44.07555562 463.97252957 44.04100553 459.48632025 44 455 C43.54542419 455.2276152 43.09084839 455.45523041 42.62249756 455.68974304 C40.53492565 456.73483941 38.4471518 457.77953175 36.359375 458.82421875 C35.64442871 459.18221558 34.92948242 459.5402124 34.19287109 459.90905762 C14.86060509 469.58072678 -6.00077773 476.67346148 -27 467 C-30.01096782 465.28956786 -32.49151699 463.38083897 -35 461 C-35.60328125 460.43667969 -36.2065625 459.87335938 -36.828125 459.29296875 C-60.28330343 435.07294755 -58.35349177 386.47709784 -52 356 C-48.80553906 342.12824248 -43.29706794 326.84160054 -29.2109375 320.8046875 C-20.37134065 318.21578183 -9.29174138 317.37263371 -1.35546875 322.83984375 C8.10327708 330.93565791 7.28678644 340.8753695 8 353 C22.52 353 37.04 353 52 353 C51.50742769 341.14413836 51.50742769 341.14413836 49 329.9375 C48.78561279 329.28322021 48.57122559 328.62894043 48.3503418 327.95483398 C41.26379686 307.84436863 25.91829906 295.50893648 5.625 290.125 C3.75593049 289.72147903 1.88106938 289.34326084 0 289 C-0.70769531 288.86980469 -1.41539062 288.73960937 -2.14453125 288.60546875 C-32.48606179 284.25438884 -64.70402365 292.75577714 -81.30859375 320.05859375 Z M-256 291 C-256 360.63 -256 430.26 -256 502 C-206.00280713 505.40797243 -206.00280713 505.40797243 -153 495 C-152.06800781 494.56816406 -151.13601563 494.13632812 -150.17578125 493.69140625 C-135.34517263 486.22552006 -127.45811472 474.00213315 -124.40625 457.859375 C-122.78016079 445.12807354 -122.24415297 430.09178921 -127 418 C-127.32871094 417.14921875 -127.65742188 416.2984375 -127.99609375 415.421875 C-133.96469729 401.95637497 -145.45708629 393.11621184 -159 388 C-158.40832031 387.61328125 -157.81664062 387.2265625 -157.20703125 386.828125 C-156.02173828 386.04695313 -156.02173828 386.04695313 -154.8125 385.25 C-154.03519531 384.73953125 -153.25789063 384.2290625 -152.45703125 383.703125 C-136.77126567 372.83032088 -133.70968382 357.41773858 -133.68310547 339.4699707 C-133.87251875 325.32126631 -138.31408885 313.58992027 -149 304 C-150.0828125 303.01 -150.0828125 303.01 -151.1875 302 C-179.2411532 282.0507355 -229.03201312 291 -256 291 Z " transform="translate(446,221)" style="fill: #10866D;"/><path d="M0 0 C-1.23363281 1.12535156 -1.23363281 1.12535156 -2.4921875 2.2734375 C-12.60908237 11.53304583 -22.30313279 20.83538853 -30.85693359 31.58789062 C-32.00201427 33.00248837 -33.17549228 34.38675904 -34.36328125 35.765625 C-67.95593131 74.83548439 -92.84484854 128.64169874 -79.1875 180.8125 C-73.55995987 200.8438003 -64.11443094 218.40103341 -50.8984375 234.4140625 C-50 236 -50 236 -51 239 C-52.49609375 240.5078125 -52.49609375 240.5078125 -54.4375 242.125 C-55.15550781 242.73601562 -55.87351562 243.34703125 -56.61328125 243.9765625 C-57.40089844 244.64429688 -58.18851562 245.31203125 -59 246 C-64.77536707 251.02128688 -70.19930784 256.03049067 -75 262 C-72.64195429 261.00844333 -70.28810603 260.00897767 -67.9375 259 C-67.22102295 258.69255859 -66.5045459 258.38511719 -65.76635742 258.06835938 C-59.96051612 255.52786628 -54.41278139 252.63631584 -48.96264648 249.40234375 C-45.33985407 247.34685869 -43.08059832 246.25312179 -39 248 C-36.89453125 249.96875 -36.89453125 249.96875 -34.8125 252.5 C-21.63919381 267.88123039 -4.4675799 279.15654828 12.71166992 289.59790039 C14.2373541 290.5327136 15.75079807 291.48780298 17.2512207 292.46264648 C24.58842583 297.1200179 32.36134445 300.20368262 40.4375 303.3125 C41.16097626 303.59346527 41.88445251 303.87443054 42.62985229 304.16390991 C112.84041629 331.4044736 187.12434106 343.52806513 296.88671875 311.3125 C297.44689697 311.0664502 298.0070752 310.82040039 298.58422852 310.56689453 C299.98498827 309.93787327 301.37229682 309.27911042 302.7578125 308.6171875 C305.68076417 307.81261195 306.46226029 308.43215316 309 310 C310.50463867 311.62548828 310.50463867 311.62548828 311.91796875 313.5703125 C312.44583984 314.29412109 312.97371094 315.01792969 313.51757812 315.76367188 C314.34418945 316.9325293 314.34418945 316.9325293 315.1875 318.125 C316.04698242 319.32866211 316.04698242 319.32866211 316.92382812 320.55664062 C321.82136971 327.52727373 326.1217783 334.72578761 330.08056641 342.26367188 C330.93864976 343.88414156 331.82787081 345.48215101 332.73046875 347.078125 C333.45169922 348.40070313 333.45169922 348.40070313 334.1875 349.75 C334.79658203 350.85601562 334.79658203 350.85601562 335.41796875 351.984375 C336.22644549 354.78420048 335.66771359 355.64395033 334 358 C298.23464336 392.04332095 246.86740102 409.4812271 199 416 C198.19079102 416.11182617 197.38158203 416.22365234 196.54785156 416.33886719 C125.10947695 425.8659874 37.12168664 412.95346898 -60 360 C-60.57008789 359.58540527 -61.14017578 359.17081055 -61.72753906 358.74365234 C-69.83854588 352.81890706 -77.30283564 346.32530169 -84.55566406 339.38134766 C-85.83801618 338.15491961 -87.13297661 336.94170513 -88.4296875 335.73046875 C-99.01252144 325.58074012 -107.50157222 313.54524442 -115 301 C-115.50394287 300.17290527 -115.50394287 300.17290527 -116.01806641 299.32910156 C-126.63252248 281.6814686 -133.07562065 261.3164071 -136 241 C-136.12600838 240.12964867 -136.12600838 240.12964867 -136.25456238 239.24171448 C-136.91201804 234.41026319 -137.18634318 229.6583565 -137.23828125 224.78515625 C-137.24802979 224.02052063 -137.25777832 223.25588501 -137.26782227 222.46807861 C-137.44900948 204.55183353 -136.94353683 187.54987305 -133 170 C-132.81808105 169.16597656 -132.63616211 168.33195313 -132.44873047 167.47265625 C-121.73631142 119.6066194 -95.66848854 75.37666624 -61 41 C-60.2575 40.2575 -59.515 39.515 -58.75 38.75 C-58.32847656 38.33363281 -57.90695313 37.91726562 -57.47265625 37.48828125 C-56.37661585 36.38061178 -55.30470759 35.24896031 -54.24609375 34.10546875 C-45.11115778 24.48518514 -13.77486123 -4.59162041 0 0 Z " transform="translate(151,21)" style="fill: #0F7BBF;"/><path d="M0 0 C0.79728516 0.33999023 1.59457031 0.67998047 2.41601562 1.03027344 C20.24021168 8.73739947 36.71159062 19.07037317 52 31 C52.51385254 31.39815918 53.02770508 31.79631836 53.55712891 32.20654297 C60.17006167 37.36242549 66.1737832 42.97164915 72 49 C72.825 49.804375 73.65 50.60875 74.5 51.4375 C75.33807426 52.28701555 76.17064795 53.14196718 77 54 C77.64324219 54.65871094 78.28648437 55.31742187 78.94921875 55.99609375 C112.86652911 92.0443346 121.08074062 142.43340547 110.81640625 189.57421875 C105.29449629 213.30241135 95.40695085 239.42906283 79 258 C78.34 258 77.68 258 77 258 C76.67 347.1 76.34 436.2 76 528 C-96.26 528 -268.52 528 -446 528 C-446 527.67 -446 527.34 -446 527 C-274.07 527 -102.14 527 75 527 C74.938125 475.540625 74.87625 424.08125 74.8125 371.0625 C74.80581299 354.84488525 74.79912598 338.62727051 74.79223633 321.91821289 C74.76234098 307.31565833 74.76234098 307.31565833 74.72587585 292.71311951 C74.70987418 286.2349991 74.70725225 279.75704824 74.71403503 273.27891541 C74.72183195 265.78691833 74.71197484 258.29517855 74.68140606 250.80323639 C74.66633704 246.98025511 74.65846362 243.15769924 74.67339098 239.33470738 C74.73786234 221.22307599 73.4254734 204.63806861 69 187 C68.68779949 185.74457797 68.68779949 185.74457797 68.3692919 184.46379387 C66.54565271 174.98632411 66.54565271 174.98632411 62 167 C62.66 167 63.32 167 64 167 C54.05128968 142.70767487 54.05128968 142.70767487 41 120 C40.57009766 119.3611084 40.14019531 118.7222168 39.69726562 118.06396484 C33.58806044 109.12089113 26.70580225 101.14886174 19.23632812 93.32617188 C17.71902147 91.69860281 16.32521404 89.98863024 14.9375 88.25 C11.30853973 83.93994454 6.79734241 80.57635101 2.390625 77.10546875 C1.11072274 76.08801836 -0.14884015 75.04511988 -1.40625 74 C-45.56874768 37.49233526 -103.92010416 21.28633204 -160 16 C-161.02109863 15.90356201 -162.04219727 15.80712402 -163.09423828 15.70776367 C-173.84481319 14.81572173 -184.59282654 14.80018833 -195.375 14.8125 C-196.84064896 14.81340637 -196.84064896 14.81340637 -198.33590698 14.81433105 C-212.98804006 14.83892096 -227.44837912 15.13674444 -242 17 C-243.04220703 17.12890625 -244.08441406 17.2578125 -245.15820312 17.390625 C-280.84911246 21.91748138 -315.08202837 30.38737625 -347.02416992 47.14892578 C-349 48 -349 48 -352 48 C-335.69186436 34.16513612 -317.5532905 22.59655806 -299 12 C-298.44602539 11.68047363 -297.89205078 11.36094727 -297.32128906 11.03173828 C-227.15754268 -29.08212135 -141.79983182 -39.72696667 0 0 Z " transform="translate(446,221)" style="fill: #CFD1D3;"/><path d="M0 0 C39.6 0 79.2 0 120 0 C116.70450192 3.29549808 114.85344547 4.79025205 110.9375 6.875 C84.40523481 21.72700303 58.97158779 44.96700282 41.10839844 69.48583984 C40.06613144 70.90965922 38.99108747 72.30931907 37.9140625 73.70703125 C16.4713719 101.97239613 4.08647069 135.77134055 1 171 C0.67 171 0.34 171 0 171 C0 114.57 0 58.14 0 0 Z " transform="translate(0,0)" style="fill: #F6C613;"/><path d="M0 0 C3.33851505 -0.0348597 6.6769824 -0.05571402 10.015625 -0.07421875 C11.42062256 -0.08914368 11.42062256 -0.08914368 12.85400391 -0.10437012 C26.24609488 -0.15992683 40.0855577 1.92305216 48.78515625 13.12890625 C55.25519045 23.09400716 55.04781073 35.86702468 52 47 C47.43830793 57.31004051 38.84097621 62.30683177 28.1015625 64.47265625 C3.14899289 68.14899289 3.14899289 68.14899289 0 65 C-0.09409479 62.97505769 -0.11743122 60.9468013 -0.11352539 58.91967773 C-0.11367142 58.28554962 -0.11381744 57.65142151 -0.1139679 56.99807739 C-0.11326887 54.89321522 -0.10547704 52.78844055 -0.09765625 50.68359375 C-0.09579203 49.2277074 -0.09436815 47.77182043 -0.09336853 46.31593323 C-0.08954365 42.47720621 -0.07971364 38.63851681 -0.06866455 34.79980469 C-0.05844978 30.88542184 -0.05387077 26.97103294 -0.04882812 23.05664062 C-0.03809134 15.37107645 -0.02101529 7.6855429 0 0 Z " transform="translate(229,627)" style="fill: #12876F;"/><path d="M0 0 C32.88372093 0 32.88372093 0 40 9 C43.03930317 14.75402056 43.4620989 19.48734257 43.375 25.9375 C43.38660156 26.79279297 43.39820313 27.64808594 43.41015625 28.52929688 C43.36563604 38.25696297 41.12519969 44.45422878 33 50 C23 53 23 53 0 53 C0 35.51 0 18.02 0 0 Z " transform="translate(229,543)" style="fill: #13876F;"/><path d="M0 0 C0.28503467 5.5910646 -0.60316403 9.92222202 -2.4375 15.1875 C-2.83739136 16.35273193 -2.83739136 16.35273193 -3.24536133 17.54150391 C-9.12722145 34.1981872 -17.23647635 49.70373691 -26 65 C-26.30196289 65.55187988 -26.60392578 66.10375977 -26.91503906 66.67236328 C-27.6953125 68.06640625 -27.6953125 68.06640625 -29 70 C-31 70 -31 70 -32.06567383 68.45874023 C-32.44232178 67.74919189 -32.81896973 67.03964355 -33.20703125 66.30859375 C-33.62919922 65.52806641 -34.05136719 64.74753906 -34.48632812 63.94335938 C-35.1427832 62.70295898 -35.1427832 62.70295898 -35.8125 61.4375 C-38.62826252 56.15102302 -41.40770064 51.15975357 -45.1862793 46.49243164 C-46 45 -46 45 -45 42 C-43.05213787 40.37237463 -41.11044494 38.86548885 -39.0625 37.375 C-33.82874205 33.46681007 -28.94392433 29.38455599 -24.140625 24.953125 C-22.40658742 23.37097392 -20.65300618 21.89053119 -18.8125 20.4375 C-12.49268956 15.23295023 -7.61396899 8.33141971 -2.6015625 1.90625 C-1 0 -1 0 0 0 Z " transform="translate(582,217)" style="fill: #197FC1;"/><path d="M0 0 C0.66 0.33 1.32 0.66 2 1 C1.01 1 0.02 1 -1 1 C-0.67 0.67 -0.34 0.34 0 0 Z " transform="translate(92,270)" style="fill: #D1D1E5;"/><path d="" transform="translate(0,0)" style="fill: #D1E8E8;"/></svg>