<?xml version="1.0" encoding="UTF-8" standalone="yes"?>
<!-- Created with Inkscape (http://www.inkscape.org/) -->

<svg
   xmlns:dc="http://purl.org/dc/elements/1.1/"
   xmlns:cc="http://creativecommons.org/ns#"
   xmlns:rdf="http://www.w3.org/1999/02/22-rdf-syntax-ns#"
   xmlns:svg="http://www.w3.org/2000/svg"
   xmlns="http://www.w3.org/2000/svg"
   xmlns:sodipodi="http://sodipodi.sourceforge.net/DTD/sodipodi-0.dtd"
   viewBox="30 0 45 45"
   id="svg2"
   version="1.1"
   >
  <g
     id="layer1"
     transform="translate(0,-989.3622)">
    <path
       d="m 73.09742,995.96487 c -8.871783,3.66809 -13.137425,1.60593 -16.98208,-0.98138 l -4.376684,15.18121 c 3.840854,2.6021 8.477868,4.7416 16.98961,0.931 z"
       style="fill:#91c300;stroke-width:0.26887342"
       id="path2" />
    <path
       style="fill:#00b4f1;stroke-width:0.26887342"
       d="m 44.255917,1026.4836 c -3.853211,-2.5934 -8.042006,-4.7264 -16.934774,-1.0493 l 4.354371,-15.2097 c 8.894675,-3.6777 13.167639,-1.5965 17.017062,1.0127 l -4.436659,15.2458 z"
       id="path4" />
    <path
       d="m 49.431962,1008.4917 c -2.319778,-1.562 -4.814678,-3.0202 -8.357935,-3.047 -2.337782,-0.018 -5.120642,0.646 -8.653467,2.1067 l 4.378161,-15.1703 c 8.888657,-3.67532 13.158089,-1.59529 17.00484,1.01201 z"
       style="fill:#f8682c;stroke-width:0.26887342"
       id="path6" />
    <path
       d="m 51.000589,1012.7007 c 3.848419,2.5911 8.123186,4.6549 17.004405,0.984 l -4.377588,15.1201 c -8.882783,3.6737 -13.148658,1.5933 -16.99308,-1.0137 z"
       style="fill:#ffc300;stroke-width:0.26887342"
       id="path8" />
  </g>
</svg>
